<svg width="14" height="18" viewBox="0 0 14 18" xmlns="http://www.w3.org/2000/svg">
<path fill-rule="evenodd" clip-rule="evenodd" d="M4.75788 1.68837C4.4975 1.94191 4.29925 2.23362 4.16166 2.56424C4.02481 2.89485 3.95602 3.23554 3.95602 3.58777C3.95602 3.95367 4.02481 4.30157 4.16166 4.63218C4.29925 4.9628 4.4975 5.25451 4.75788 5.50805C5.03232 5.76087 5.33561 5.95463 5.66774 6.08788C6.00062 6.22186 6.35421 6.28885 6.72999 6.28885C7.10577 6.28885 7.45936 6.22186 7.79224 6.08788C8.12437 5.95463 8.42766 5.76087 8.7021 5.50805C8.96248 5.25451 9.16073 4.9628 9.29832 4.63218C9.43517 4.30157 9.50396 3.95367 9.50396 3.58777C9.50396 3.23554 9.43517 2.89485 9.29832 2.56424C9.16073 2.23362 8.96248 1.94191 8.7021 1.68837C8.42766 1.43482 8.12437 1.23819 7.79224 1.09773C7.45936 0.956553 7.10577 0.886685 6.72999 0.886685C6.35421 0.886685 6.00062 0.956553 5.66774 1.09773C5.33561 1.23819 5.03232 1.43482 4.75788 1.68837ZM4.10768 6.14118C3.38571 5.43745 3.02398 4.58607 3.02398 3.58775C3.02398 2.60312 3.38571 1.75894 4.10768 1.05522C4.83039 0.352221 5.70401 0 6.73001 0C7.75601 0 8.62963 0.352221 9.35234 1.05522C10.0743 1.75894 10.436 2.60312 10.436 3.58775C10.436 4.58607 10.0743 5.43745 9.35234 6.14118C8.62963 6.84418 7.75601 7.19568 6.73001 7.19568C5.70401 7.19568 4.83039 6.84418 4.10768 6.14118ZM12.2779 17.0931V14.3921C12.2779 14.0967 12.2491 13.8007 12.1914 13.5054C12.1337 13.2101 12.0398 12.9284 11.9096 12.6612C11.7942 12.394 11.6529 12.1376 11.4872 11.8912C11.3207 11.6449 11.1292 11.4238 10.9124 11.2264C10.6957 11.0154 10.4649 10.8288 10.2193 10.6675C9.9737 10.5054 9.71332 10.3685 9.43888 10.2562C9.16444 10.1294 8.87521 10.0379 8.57192 9.98174C8.26863 9.92556 7.96535 9.89675 7.66206 9.89675H5.79795C5.49466 9.89675 5.19137 9.92556 4.88809 9.98174C4.5848 10.0379 4.29557 10.1294 4.02113 10.2562C3.74669 10.3685 3.48261 10.5054 3.23036 10.6675C2.97737 10.8288 2.74954 11.0154 2.54759 11.2264C2.33085 11.4374 2.13926 11.6629 1.97283 11.902C1.80713 12.1412 1.66584 12.394 1.55044 12.6612C1.42025 12.9284 1.3263 13.2101 1.26861 13.5054C1.21091 13.8007 1.18206 14.0967 1.18206 14.3921V17.0931H12.2779ZM7.66206 8.98991C8.41288 8.98991 9.12819 9.13397 9.80726 9.42209C10.4863 9.71092 11.0752 10.0977 11.5737 10.5832C12.0723 11.0679 12.4695 11.6413 12.7654 12.3025C13.0621 12.9637 13.21 13.6603 13.21 14.3921V17.4094C13.21 17.5786 13.1486 17.7191 13.0258 17.8315C12.903 17.9438 12.7617 18 12.6027 18H0.857315C0.698274 18 0.556986 17.9438 0.434192 17.8315C0.311397 17.7191 0.25 17.5786 0.25 17.4094V14.3921C0.25 13.6603 0.397945 12.9637 0.694575 12.3025C0.990466 11.6413 1.3877 11.0679 1.88627 10.5832C2.38485 10.0977 2.97367 9.71092 3.65274 9.42209C4.33181 9.13397 5.04712 8.98991 5.79795 8.98991H7.66206Z" />
</svg>
